#!OML:ASF X:\für Bonn\!DataBase\2005_08_10_Bjorn_Final\c3d\bjorn.ASF
:FULLY-SPECIFIED
:DEGREES
214
root -10.8776 17.7815 10.3285 172.798 56.8271 -541.84
lowerback 1.16404 -3.64171 3.65354
upperback 17.1417 -3.63075 0.345324
thorax 18.5853 -0.476797 -1.89311
lowerneck 12.4647 1.92279 7.21362
upperneck -9.61925 2.93917 -7.76353
head -4.68947 1.70087 -3.81827
rclavicle -1.59028e-015 -3.02153e-014
rhumerus -17.7172 -15.1138 -85.7248
rradius 77.3619
rwrist 2.61294
rhand -29.1405 20.3761
rfingers 7.12502
rthumb -2.48744 -9.58915
lclavicle -1.59028e-015 -3.02153e-014
lhumerus -6.36033 -7.90365 88.6482
lradius 65.0078
lwrist -18.639
lhand -50.0697 -18.0688
lfingers 7.12502
lthumb -22.656 10.6214
rfemur -34.1237 -9.68563 7.14088
rtibia 42.2168
rfoot 9.08913 17.9281
rtoes -19.4154
lfemur 12.7923 12.6999 -13.816
ltibia 35.8946
lfoot -22.304 9.46042
ltoes 4.35585
215
root -10.7572 17.7677 10.3158 172.745 56.7045 -542.035
lowerback 1.17809 -3.718 3.62146
upperback 17.2006 -3.72646 0.402199
thorax 18.6582 -0.524696 -1.82106
lowerneck 12.5215 2.05375 7.23181
upperneck -9.80941 3.08116 -8.07881
head -4.74032 1.79312 -3.93579
rclavicle 3.77691e-014 -3.57812e-015
rhumerus -17.4473 -15.1212 -85.7334
rradius 77.0966
rwrist 2.6608
rhand -29.0846 20.329
rfingers 7.12502
rthumb -2.43343 -9.63684
lclavicle 3.77691e-014 -3.57812e-015
lhumerus -6.48605 -7.93082 88.5556
lradius 65.0057
lwrist -18.3753
lhand -50.047 -18.1988
lfingers 7.12502
lthumb -22.6342 10.494
rfemur -34.2148 -9.59746 7.10513
rtibia 43.0087
rfoot 8.1725 18.0788
rtoes -18.1704
lfemur 13.1406 12.5332 -13.677
ltibia 35.6784
lfoot -21.899 9.44006
ltoes 3.4683
216
root -10.6374 17.7581 10.3031 172.709 56.5716 -542.232
lowerback 1.174 -3.78276 3.63259
upperback 17.2635 -3.80772 0.439982
thorax 18.7464 -0.556035 -1.79338
lowerneck 12.5464 2.16273 7.29187
upperneck -9.99986 3.19788 -8.40094
head -4.78669 1.87186 -4.0604
rclavicle -3.77691e-014 -2.74323e-014
rhumerus -17.1473 -15.1693 -85.7747
rradius 76.7441
rwrist 2.76884
rhand -29.0882 20.2852
rfingers 7.12502
rthumb -2.43685 -9.68062
lclavicle -3.77691e-014 -2.74323e-014
lhumerus -6.58211 -8.05178 88.419
lradius 64.9475
lwrist -18.1507
lhand -50.0347 -18.2667
lfingers 7.12502
lthumb -22.6224 10.4276
rfemur -34.3409 -9.56962 7.08536
rtibia 43.8027
rfoot 7.23815 18.3063
rtoes -17.3744
lfemur 13.4407 12.3613 -13.5472
ltibia 35.4807
lfoot -21.4749 9.37701
ltoes 2.68064
217
root -10.5183 17.7524 10.2914 172.64 56.4409 -542.46
lowerback 1.22204 -3.84203 3.64647
upperback 17.3328 -3.87621 0.485634
thorax 18.809 -0.581378 -1.75349
lowerneck 12.4642 2.28482 7.26756
upperneck -10.145 3.31686 -8.69192
head -4.80264 1.95165 -4.15821
rclavicle -7.95139e-016 1.07344e-014
rhumerus -16.7525 -15.2225 -85.7756
rradius 76.2831
rwrist 2.90552
rhand -29.0692 20.1999
rfingers 7.12502
rthumb -2.41856 -9.76616
lclavicle -7.95139e-016 1.07344e-014
lhumerus -6.64326 -8.15748 88.3272
lradius 64.8759
lwrist -18.02
lhand -49.9393 -18.2216
lfingers 7.12502
lthumb -22.5308 10.4838
rfemur -34.4676 -9.52053 7.04457
rtibia 44.5914
rfoot 6.2636 18.5192
rtoes -16.5585
lfemur 13.7225 12.2191 -13.4215
ltibia 35.3238
lfoot -21.0363 9.2841
ltoes 1.92577
218
root -10.4008 17.7493 10.2799 172.644 56.3291 -542.622
lowerback 1.32087 -3.91249 3.77402
upperback 17.3847 -3.96545 0.505782
thorax 18.8012 -0.599046 -1.80551
lowerneck 12.3448 2.42733 7.14818
upperneck -10.2614 3.45584 -8.89771
head -4.80489 2.03866 -4.21308
rclavicle 1.19271e-015 -3.33958e-014
rhumerus -16.4032 -15.2641 -85.8087
rradius 75.8125
rwrist 3.05491
rhand -29.0794 20.2211
rfingers 7.12502
rthumb -2.42843 -9.74485
lclavicle 1.19271e-015 -3.33958e-014
lhumerus -6.72752 -8.26673 88.1916
lradius 64.7845
lwrist -17.8657
lhand -49.9117 -18.1629
lfingers 7.12502
lthumb -22.5043 10.5458
rfemur -34.6076 -9.4708 7.06319
rtibia 45.3365
rfoot 5.25833 18.7212
rtoes -16.0406
lfemur 13.9459 12.108 -13.2533
ltibia 35.2168
lfoot -20.5512 9.1929
ltoes 1.13593
219
root -10.2841 17.7419 10.2694 172.609 56.2076 -542.821
lowerback 1.46838 -3.99233 3.90981
upperback 17.4237 -4.0657 0.527422
thorax 18.7406 -0.623054 -1.85908
lowerneck 12.1493 2.59203 6.89716
upperneck -10.3155 3.60699 -9.05782
head -4.77758 2.13259 -4.22899
rclavicle -2.46493e-014 0
rhumerus -16.1214 -15.3284 -85.8544
rradius 75.4125
rwrist 3.27318
rhand -29.048 20.1771
rfingers 7.12502
rthumb -2.39803 -9.7892
lclavicle -2.46493e-014 0
lhumerus -6.73991 -8.3277 88.0879
lradius 64.5559
lwrist -17.8063
lhand -49.8329 -18.1466
lfingers 7.12502
lthumb -22.4287 10.5712
rfemur -34.7071 -9.44058 7.06114
rtibia 46.0264
rfoot 4.27651 18.8971
rtoes -15.1521
lfemur 14.141 11.9929 -13.0995
ltibia 35.1815
lfoot -20.093 9.07066
ltoes 0.419301
220
root -10.1686 17.7332 10.2608 172.634 56.0851 -542.945
lowerback 1.65816 -4.0654 4.13017
upperback 17.4557 -4.15689 0.527318
thorax 18.6335 -0.62883 -1.97989
lowerneck 11.92 2.75266 6.68096
upperneck -10.3433 3.76344 -9.18244
head -4.73629 2.22446 -4.23778
rclavicle 6.20208e-014 -6.67916e-014
rhumerus -15.8725 -15.4255 -85.9447
rradius 75.011
rwrist 3.43607
rhand -29.043 20.1275
rfingers 7.12502
rthumb -2.3932 -9.83882
lclavicle 6.20208e-014 -6.67916e-014
lhumerus -6.84254 -8.43092 87.9264
lradius 64.4014
lwrist -17.8025
lhand -49.7683 -18.0144
lfingers 7.12502
lthumb -22.3667 10.7109
rfemur -34.7592 -9.3544 7.10706
rtibia 46.6464
rfoot 3.38182 18.9734
rtoes -13.794
lfemur 14.2973 11.854 -12.8973
ltibia 35.2108
lfoot -19.6374 8.92369
ltoes -0.278413
221
root -10.0516 17.7222 10.2524 172.601 55.9761 -543.142
lowerback 1.83406 -4.12961 4.28152
upperback 17.4726 -4.23411 0.529965
thorax 18.5209 -0.641256 -2.05868
lowerneck 11.7274 2.90594 6.49272
upperneck -10.3511 3.91298 -9.35765
head -4.69401 2.31583 -4.26675
rclavicle -4.33351e-014 1.35174e-014
rhumerus -15.656 -15.5237 -86.0187
rradius 74.5982
rwrist 3.57975
rhand -28.9901 20.1773
rfingers 7.12502
rthumb -2.34217 -9.78957
lclavicle -4.33351e-014 1.35174e-014
lhumerus -6.89176 -8.51016 87.8029
lradius 64.1452
lwrist -17.7805
lhand -49.7245 -17.9592
lfingers 7.12502
lthumb -22.3246 10.7711
rfemur -34.7878 -9.26212 7.12077
rtibia 47.2068
rfoot 2.50835 19.0539
rtoes -12.4653
lfemur 14.4202 11.668 -12.7673
ltibia 35.3031
lfoot -19.2117 8.7962
ltoes -0.817603
